<svg xmlns="http://www.w3.org/2000/svg" viewBox="0 0 24 24" width="1024" height="1024"><rect width="24" height="24" fill="#FFFFFF"></rect><g id="zoom" transform="translate(12 12) scale(1.18) translate(-12 -12.5)"><path d="M3.500 19.000Q3 19 3.000 18.500L3.000 17.500Q3 17 3.500 17.000L3.500 17.000Q4 17 4.000 16.500L4.000 12.500Q4 12 4.500 12.000L4.500 12.000Q5 12 5.000 11.500L5.000 8.500Q5 8 5.500 8.000L5.500 8.000Q6 8 6.000 7.500L6.000 6.500Q6 6 6.500 6.000L7.500 6.000Q8 6 8.000 6.500L8.000 7.500Q8 8 8.500 8.000L8.500 8.000Q9 8 9.000 8.500L9.000 9.500Q9 10 9.500 10.000L9.500 10.000Q10 10 10.000 10.500L10.000 10.500Q10 11 10.500 11.000L10.500 11.000Q11 11 11.000 11.500L11.000 12.500Q11 13 11.500 13.000L11.500 13.000Q12 13 12.000 13.500L12.000 13.500Q12 14 12.500 14.000L12.500 14.000Q13 14 13.000 14.500L13.000 14.500Q13 15 13.500 15.000L13.500 15.000Q14 15 14.000 15.500L14.000 15.500Q14 16 14.500 16.000L14.500 16.000Q15 16 15.000 16.500L15.000 16.500Q15 17 15.500 17.000L16.500 17.000Q17 17 17.000 17.500L17.000 17.500Q17 18 17.500 18.000L20.500 18.000Q21 18 21.000 18.500L21.000 18.500Q21 19 20.500 19.000Z" fill="#CCFF00"></path><path d="M6.500 19.000Q6 19 6.000 18.500L6.000 6.500Q6 6 6.500 6.000L7.500 6.000Q8 6 8.000 6.500L8.000 7.500Q8 8 8.500 8.000L8.500 8.000Q9 8 9.000 8.500L9.000 9.500Q9 10 9.500 10.000L9.500 10.000Q10 10 10.000 10.500L10.000 18.500Q10 19 9.500 19.000Z" fill="#DFFF00"></path><path d="M10.500 19.000Q10 19 10.000 18.500L10.000 11.500Q10 11 10.500 11.000L10.500 11.000Q11 11 11.000 11.500L11.000 12.500Q11 13 11.500 13.000L11.500 13.000Q12 13 12.000 13.500L12.000 13.500Q12 14 12.500 14.000L12.500 14.000Q13 14 13.000 14.500L13.000 14.500Q13 15 13.500 15.000L13.500 15.000Q14 15 14.000 15.500L14.000 15.500Q14 16 14.500 16.000L14.500 16.000Q15 16 15.000 16.500L15.000 16.500Q15 17 15.500 17.000L16.500 17.000Q17 17 17.000 17.500L17.000 17.500Q17 18 17.500 18.000L20.500 18.000Q21 18 21.000 18.500L21.000 18.500Q21 19 20.500 19.000Z" fill="#FFFF00"></path><g fill="#3D4F00" transform="translate(4.8 13.914) scale(0.348)"><path d="M2.34 0.03999999999999998H3.66Q3.96 0.03999999999999998 3.96 0.33999999999999997V0.6599999999999999Q3.96 0.96 3.66 0.96H2.34Q2.04 0.96 2.04 0.6599999999999999V0.33999999999999997Q2.04 0.03999999999999998 2.34 0.03999999999999998ZM1.34 1.04H1.66Q1.96 1.04 1.96 1.34V1.66Q1.96 1.96 1.66 1.96H1.34Q1.04 1.96 1.04 1.66V1.34Q1.04 1.04 1.34 1.04ZM4.34 1.04H4.66Q4.96 1.04 4.96 1.34V1.66Q4.96 1.96 4.66 1.96H4.34Q4.04 1.96 4.04 1.66V1.34Q4.04 1.04 4.34 1.04ZM1.34 2.04H1.66Q1.96 2.04 1.96 2.34V2.66Q1.96 2.96 1.66 2.96H1.34Q1.04 2.96 1.04 2.66V2.34Q1.04 2.04 1.34 2.04ZM0.33999999999999997 3.04H2.66Q2.96 3.04 2.96 3.34V3.66Q2.96 3.96 2.66 3.96H0.33999999999999997Q0.03999999999999998 3.96 0.03999999999999998 3.66V3.34Q0.03999999999999998 3.04 0.33999999999999997 3.04ZM1.34 4.04H1.66Q1.96 4.04 1.96 4.34V4.66Q1.96 4.96 1.66 4.96H1.34Q1.04 4.96 1.04 4.66V4.34Q1.04 4.04 1.34 4.04ZM1.34 5.04H1.66Q1.96 5.04 1.96 5.34V5.66Q1.96 5.96 1.66 5.96H1.34Q1.04 5.96 1.04 5.66V5.34Q1.04 5.04 1.34 5.04ZM1.34 6.04H1.66Q1.96 6.04 1.96 6.34V6.66Q1.96 6.96 1.66 6.96H1.34Q1.04 6.96 1.04 6.66V6.34Q1.04 6.04 1.34 6.04ZM0.33999999999999997 3.04H0.6599999999999999Q0.96 3.04 0.96 3.34V3.66Q0.96 3.96 0.6599999999999999 3.96H0.33999999999999997Q0.03999999999999998 3.96 0.03999999999999998 3.66V3.34Q0.03999999999999998 3.04 0.33999999999999997 3.04ZM1.34 1.04H1.66Q1.96 1.04 1.96 1.34V6.66Q1.96 6.96 1.66 6.96H1.34Q1.04 6.96 1.04 6.66V1.34Q1.04 1.04 1.34 1.04ZM2.34 0.03999999999999998H2.66Q2.96 0.03999999999999998 2.96 0.33999999999999997V0.6599999999999999Q2.96 0.96 2.66 0.96H2.34Q2.04 0.96 2.04 0.6599999999999999V0.33999999999999997Q2.04 0.03999999999999998 2.34 0.03999999999999998ZM2.34 3.04H2.66Q2.96 3.04 2.96 3.34V3.66Q2.96 3.96 2.66 3.96H2.34Q2.04 3.96 2.04 3.66V3.34Q2.04 3.04 2.34 3.04ZM3.34 0.03999999999999998H3.66Q3.96 0.03999999999999998 3.96 0.33999999999999997V0.6599999999999999Q3.96 0.96 3.66 0.96H3.34Q3.04 0.96 3.04 0.6599999999999999V0.33999999999999997Q3.04 0.03999999999999998 3.34 0.03999999999999998ZM4.34 1.04H4.66Q4.96 1.04 4.96 1.34V1.66Q4.96 1.96 4.66 1.96H4.34Q4.04 1.96 4.04 1.66V1.34Q4.04 1.04 4.34 1.04ZM3.94 0.64H4.0600000000000005Q4.36 0.64 4.36 0.94V1.0599999999999998Q4.36 1.3599999999999999 4.0600000000000005 1.3599999999999999H3.94Q3.64 1.3599999999999999 3.64 1.0599999999999998V0.94Q3.64 0.64 3.94 0.64ZM1.9400000000000002 0.64H2.0600000000000005Q2.3600000000000003 0.64 2.3600000000000003 0.94V1.0599999999999998Q2.3600000000000003 1.3599999999999999 2.0600000000000005 1.3599999999999999H1.9400000000000002Q1.6400000000000001 1.3599999999999999 1.6400000000000001 1.0599999999999998V0.94Q1.6400000000000001 0.64 1.9400000000000002 0.64ZM1.9400000000000002 2.64H2.0600000000000005Q2.3600000000000003 2.64 2.3600000000000003 2.94V3.0600000000000005Q2.3600000000000003 3.3600000000000003 2.0600000000000005 3.3600000000000003H1.9400000000000002Q1.6400000000000001 3.3600000000000003 1.6400000000000001 3.0600000000000005V2.94Q1.6400000000000001 2.64 1.9400000000000002 2.64ZM0.94 3.64H1.0599999999999998Q1.3599999999999999 3.64 1.3599999999999999 3.94V4.0600000000000005Q1.3599999999999999 4.36 1.0599999999999998 4.36H0.94Q0.64 4.36 0.64 4.0600000000000005V3.94Q0.64 3.64 0.94 3.64ZM0.94 2.64H1.0599999999999998Q1.3599999999999999 2.64 1.3599999999999999 2.94V3.0600000000000005Q1.3599999999999999 3.3600000000000003 1.0599999999999998 3.3600000000000003H0.94Q0.64 3.3600000000000003 0.64 3.0600000000000005V2.94Q0.64 2.64 0.94 2.64ZM1.9400000000000002 3.64H2.0600000000000005Q2.3600000000000003 3.64 2.3600000000000003 3.94V4.0600000000000005Q2.3600000000000003 4.36 2.0600000000000005 4.36H1.9400000000000002Q1.6400000000000001 4.36 1.6400000000000001 4.0600000000000005V3.94Q1.6400000000000001 3.64 1.9400000000000002 3.64ZM7.74 0.03999999999999998H8.06Q8.360000000000001 0.03999999999999998 8.360000000000001 0.33999999999999997V0.6599999999999999Q8.360000000000001 0.96 8.06 0.96H7.74Q7.44 0.96 7.44 0.6599999999999999V0.33999999999999997Q7.44 0.03999999999999998 7.74 0.03999999999999998ZM6.74 1.04H7.0600000000000005Q7.36 1.04 7.36 1.34V1.66Q7.36 1.96 7.0600000000000005 1.96H6.74Q6.44 1.96 6.44 1.66V1.34Q6.44 1.04 6.74 1.04ZM6.74 2.04H7.0600000000000005Q7.36 2.04 7.36 2.34V2.66Q7.36 2.96 7.0600000000000005 2.96H6.74Q6.44 2.96 6.44 2.66V2.34Q6.44 2.04 6.74 2.04ZM6.74 3.04H7.0600000000000005Q7.36 3.04 7.36 3.34V3.66Q7.36 3.96 7.0600000000000005 3.96H6.74Q6.44 3.96 6.44 3.66V3.34Q6.44 3.04 6.74 3.04ZM6.74 4.04H7.0600000000000005Q7.36 4.04 7.36 4.34V4.66Q7.36 4.96 7.0600000000000005 4.96H6.74Q6.44 4.96 6.44 4.66V4.34Q6.44 4.04 6.74 4.04ZM6.74 5.04H7.0600000000000005Q7.36 5.04 7.36 5.34V5.66Q7.36 5.96 7.0600000000000005 5.96H6.74Q6.44 5.96 6.44 5.66V5.34Q6.44 5.04 6.74 5.04ZM7.74 6.04H8.06Q8.360000000000001 6.04 8.360000000000001 6.34V6.66Q8.360000000000001 6.96 8.06 6.96H7.74Q7.44 6.96 7.44 6.66V6.34Q7.44 6.04 7.74 6.04ZM6.74 1.04H7.0600000000000005Q7.36 1.04 7.36 1.34V5.66Q7.36 5.96 7.0600000000000005 5.96H6.74Q6.44 5.96 6.44 5.66V1.34Q6.44 1.04 6.74 1.04ZM7.74 0.03999999999999998H8.06Q8.360000000000001 0.03999999999999998 8.360000000000001 0.33999999999999997V0.6599999999999999Q8.360000000000001 0.96 8.06 0.96H7.74Q7.44 0.96 7.44 0.6599999999999999V0.33999999999999997Q7.44 0.03999999999999998 7.74 0.03999999999999998ZM7.74 6.04H8.06Q8.360000000000001 6.04 8.360000000000001 6.34V6.66Q8.360000000000001 6.96 8.06 6.96H7.74Q7.44 6.96 7.44 6.66V6.34Q7.44 6.04 7.74 6.04ZM7.34 0.64H7.46Q7.76 0.64 7.76 0.94V1.0599999999999998Q7.76 1.3599999999999999 7.46 1.3599999999999999H7.34Q7.04 1.3599999999999999 7.04 1.0599999999999998V0.94Q7.04 0.64 7.34 0.64ZM7.34 5.64H7.46Q7.76 5.64 7.76 5.9399999999999995V6.06Q7.76 6.359999999999999 7.46 6.359999999999999H7.34Q7.04 6.359999999999999 7.04 6.06V5.9399999999999995Q7.04 5.64 7.34 5.64ZM9.14 0.03999999999999998H9.459999999999999Q9.76 0.03999999999999998 9.76 0.33999999999999997V0.6599999999999999Q9.76 0.96 9.459999999999999 0.96H9.14Q8.84 0.96 8.84 0.6599999999999999V0.33999999999999997Q8.84 0.03999999999999998 9.14 0.03999999999999998ZM13.14 0.03999999999999998H13.459999999999999Q13.76 0.03999999999999998 13.76 0.33999999999999997V0.6599999999999999Q13.76 0.96 13.459999999999999 0.96H13.14Q12.84 0.96 12.84 0.6599999999999999V0.33999999999999997Q12.84 0.03999999999999998 13.14 0.03999999999999998ZM9.14 1.04H9.459999999999999Q9.76 1.04 9.76 1.34V1.66Q9.76 1.96 9.459999999999999 1.96H9.14Q8.84 1.96 8.84 1.66V1.34Q8.84 1.04 9.14 1.04ZM13.14 1.04H13.459999999999999Q13.76 1.04 13.76 1.34V1.66Q13.76 1.96 13.459999999999999 1.96H13.14Q12.84 1.96 12.84 1.66V1.34Q12.84 1.04 13.14 1.04ZM10.14 2.04H10.459999999999999Q10.76 2.04 10.76 2.34V2.66Q10.76 2.96 10.459999999999999 2.96H10.14Q9.84 2.96 9.84 2.66V2.34Q9.84 2.04 10.14 2.04ZM12.14 2.04H12.459999999999999Q12.76 2.04 12.76 2.34V2.66Q12.76 2.96 12.459999999999999 2.96H12.14Q11.84 2.96 11.84 2.66V2.34Q11.84 2.04 12.14 2.04ZM11.14 3.04H11.459999999999999Q11.76 3.04 11.76 3.34V3.66Q11.76 3.96 11.459999999999999 3.96H11.14Q10.84 3.96 10.84 3.66V3.34Q10.84 3.04 11.14 3.04ZM10.14 4.04H10.459999999999999Q10.76 4.04 10.76 4.34V4.66Q10.76 4.96 10.459999999999999 4.96H10.14Q9.84 4.96 9.84 4.66V4.34Q9.84 4.04 10.14 4.04ZM12.14 4.04H12.459999999999999Q12.76 4.04 12.76 4.34V4.66Q12.76 4.96 12.459999999999999 4.96H12.14Q11.84 4.96 11.84 4.66V4.34Q11.84 4.04 12.14 4.04ZM9.14 5.04H9.459999999999999Q9.76 5.04 9.76 5.34V5.66Q9.76 5.96 9.459999999999999 5.96H9.14Q8.84 5.96 8.84 5.66V5.34Q8.84 5.04 9.14 5.04ZM13.14 5.04H13.459999999999999Q13.76 5.04 13.76 5.34V5.66Q13.76 5.96 13.459999999999999 5.96H13.14Q12.84 5.96 12.84 5.66V5.34Q12.84 5.04 13.14 5.04ZM9.14 6.04H9.459999999999999Q9.76 6.04 9.76 6.34V6.66Q9.76 6.96 9.459999999999999 6.96H9.14Q8.84 6.96 8.84 6.66V6.34Q8.84 6.04 9.14 6.04ZM13.14 6.04H13.459999999999999Q13.76 6.04 13.76 6.34V6.66Q13.76 6.96 13.459999999999999 6.96H13.14Q12.84 6.96 12.84 6.66V6.34Q12.84 6.04 13.14 6.04ZM9.14 0.03999999999999998H9.459999999999999Q9.76 0.03999999999999998 9.76 0.33999999999999997V1.66Q9.76 1.96 9.459999999999999 1.96H9.14Q8.84 1.96 8.84 1.66V0.33999999999999997Q8.84 0.03999999999999998 9.14 0.03999999999999998ZM9.14 5.04H9.459999999999999Q9.76 5.04 9.76 5.34V6.66Q9.76 6.96 9.459999999999999 6.96H9.14Q8.84 6.96 8.84 6.66V5.34Q8.84 5.04 9.14 5.04ZM10.14 2.04H10.459999999999999Q10.76 2.04 10.76 2.34V2.66Q10.76 2.96 10.459999999999999 2.96H10.14Q9.84 2.96 9.84 2.66V2.34Q9.84 2.04 10.14 2.04ZM10.14 4.04H10.459999999999999Q10.76 4.04 10.76 4.34V4.66Q10.76 4.96 10.459999999999999 4.96H10.14Q9.84 4.96 9.84 4.66V4.34Q9.84 4.04 10.14 4.04ZM11.14 3.04H11.459999999999999Q11.76 3.04 11.76 3.34V3.66Q11.76 3.96 11.459999999999999 3.96H11.14Q10.84 3.96 10.84 3.66V3.34Q10.84 3.04 11.14 3.04ZM12.14 2.04H12.459999999999999Q12.76 2.04 12.76 2.34V2.66Q12.76 2.96 12.459999999999999 2.96H12.14Q11.84 2.96 11.84 2.66V2.34Q11.84 2.04 12.14 2.04ZM12.14 4.04H12.459999999999999Q12.76 4.04 12.76 4.34V4.66Q12.76 4.96 12.459999999999999 4.96H12.14Q11.84 4.96 11.84 4.66V4.34Q11.84 4.04 12.14 4.04ZM13.14 0.03999999999999998H13.459999999999999Q13.76 0.03999999999999998 13.76 0.33999999999999997V1.66Q13.76 1.96 13.459999999999999 1.96H13.14Q12.84 1.96 12.84 1.66V0.33999999999999997Q12.84 0.03999999999999998 13.14 0.03999999999999998ZM13.14 5.04H13.459999999999999Q13.76 5.04 13.76 5.34V6.66Q13.76 6.96 13.459999999999999 6.96H13.14Q12.84 6.96 12.84 6.66V5.34Q12.84 5.04 13.14 5.04ZM9.740000000000002 1.6400000000000001H9.860000000000001Q10.160000000000002 1.6400000000000001 10.160000000000002 1.9400000000000002V2.0600000000000005Q10.160000000000002 2.3600000000000003 9.860000000000001 2.3600000000000003H9.740000000000002Q9.440000000000001 2.3600000000000003 9.440000000000001 2.0600000000000005V1.9400000000000002Q9.440000000000001 1.6400000000000001 9.740000000000002 1.6400000000000001ZM10.740000000000002 2.64H10.860000000000001Q11.160000000000002 2.64 11.160000000000002 2.94V3.0600000000000005Q11.160000000000002 3.3600000000000003 10.860000000000001 3.3600000000000003H10.740000000000002Q10.440000000000001 3.3600000000000003 10.440000000000001 3.0600000000000005V2.94Q10.440000000000001 2.64 10.740000000000002 2.64ZM12.740000000000002 1.6400000000000001H12.860000000000001Q13.160000000000002 1.6400000000000001 13.160000000000002 1.9400000000000002V2.0600000000000005Q13.160000000000002 2.3600000000000003 12.860000000000001 2.3600000000000003H12.740000000000002Q12.440000000000001 2.3600000000000003 12.440000000000001 2.0600000000000005V1.9400000000000002Q12.440000000000001 1.6400000000000001 12.740000000000002 1.6400000000000001ZM11.740000000000002 3.64H11.860000000000001Q12.160000000000002 3.64 12.160000000000002 3.94V4.0600000000000005Q12.160000000000002 4.36 11.860000000000001 4.36H11.740000000000002Q11.440000000000001 4.36 11.440000000000001 4.0600000000000005V3.94Q11.440000000000001 3.64 11.740000000000002 3.64ZM11.740000000000002 2.64H11.860000000000001Q12.160000000000002 2.64 12.160000000000002 2.94V3.0600000000000005Q12.160000000000002 3.3600000000000003 11.860000000000001 3.3600000000000003H11.740000000000002Q11.440000000000001 3.3600000000000003 11.440000000000001 3.0600000000000005V2.94Q11.440000000000001 2.64 11.740000000000002 2.64ZM10.740000000000002 3.64H10.860000000000001Q11.160000000000002 3.64 11.160000000000002 3.94V4.0600000000000005Q11.160000000000002 4.36 10.860000000000001 4.36H10.740000000000002Q10.440000000000001 4.36 10.440000000000001 4.0600000000000005V3.94Q10.440000000000001 3.64 10.740000000000002 3.64ZM12.740000000000002 4.64H12.860000000000001Q13.160000000000002 4.64 13.160000000000002 4.9399999999999995V5.06Q13.160000000000002 5.359999999999999 12.860000000000001 5.359999999999999H12.740000000000002Q12.440000000000001 5.359999999999999 12.440000000000001 5.06V4.9399999999999995Q12.440000000000001 4.64 12.740000000000002 4.64ZM9.740000000000002 4.64H9.860000000000001Q10.160000000000002 4.64 10.160000000000002 4.9399999999999995V5.06Q10.160000000000002 5.359999999999999 9.860000000000001 5.359999999999999H9.740000000000002Q9.440000000000001 5.359999999999999 9.440000000000001 5.06V4.9399999999999995Q9.440000000000001 4.64 9.740000000000002 4.64ZM14.540000000000001 0.03999999999999998H14.86Q15.16 0.03999999999999998 15.16 0.33999999999999997V0.6599999999999999Q15.16 0.96 14.86 0.96H14.540000000000001Q14.24 0.96 14.24 0.6599999999999999V0.33999999999999997Q14.24 0.03999999999999998 14.540000000000001 0.03999999999999998ZM15.540000000000001 1.04H15.86Q16.16 1.04 16.16 1.34V1.66Q16.16 1.96 15.86 1.96H15.540000000000001Q15.24 1.96 15.24 1.66V1.34Q15.24 1.04 15.540000000000001 1.04ZM15.540000000000001 2.04H15.86Q16.16 2.04 16.16 2.34V2.66Q16.16 2.96 15.86 2.96H15.540000000000001Q15.24 2.96 15.24 2.66V2.34Q15.24 2.04 15.540000000000001 2.04ZM15.540000000000001 3.04H15.86Q16.16 3.04 16.16 3.34V3.66Q16.16 3.96 15.86 3.96H15.540000000000001Q15.24 3.96 15.24 3.66V3.34Q15.24 3.04 15.540000000000001 3.04ZM15.540000000000001 4.04H15.86Q16.16 4.04 16.16 4.34V4.66Q16.16 4.96 15.86 4.96H15.540000000000001Q15.24 4.96 15.24 4.66V4.34Q15.24 4.04 15.540000000000001 4.04ZM15.540000000000001 5.04H15.86Q16.16 5.04 16.16 5.34V5.66Q16.16 5.96 15.86 5.96H15.540000000000001Q15.24 5.96 15.24 5.66V5.34Q15.24 5.04 15.540000000000001 5.04ZM14.540000000000001 6.04H14.86Q15.16 6.04 15.16 6.34V6.66Q15.16 6.96 14.86 6.96H14.540000000000001Q14.24 6.96 14.24 6.66V6.34Q14.24 6.04 14.540000000000001 6.04ZM14.540000000000001 0.03999999999999998H14.86Q15.16 0.03999999999999998 15.16 0.33999999999999997V0.6599999999999999Q15.16 0.96 14.86 0.96H14.540000000000001Q14.24 0.96 14.24 0.6599999999999999V0.33999999999999997Q14.24 0.03999999999999998 14.540000000000001 0.03999999999999998ZM14.540000000000001 6.04H14.86Q15.16 6.04 15.16 6.34V6.66Q15.16 6.96 14.86 6.96H14.540000000000001Q14.24 6.96 14.24 6.66V6.34Q14.24 6.04 14.540000000000001 6.04ZM15.540000000000001 1.04H15.86Q16.16 1.04 16.16 1.34V5.66Q16.16 5.96 15.86 5.96H15.540000000000001Q15.24 5.96 15.24 5.66V1.34Q15.24 1.04 15.540000000000001 1.04ZM15.140000000000002 0.64H15.260000000000002Q15.560000000000002 0.64 15.560000000000002 0.94V1.0599999999999998Q15.560000000000002 1.3599999999999999 15.260000000000002 1.3599999999999999H15.140000000000002Q14.840000000000002 1.3599999999999999 14.840000000000002 1.0599999999999998V0.94Q14.840000000000002 0.64 15.140000000000002 0.64ZM15.140000000000002 5.64H15.260000000000002Q15.560000000000002 5.64 15.560000000000002 5.9399999999999995V6.06Q15.560000000000002 6.359999999999999 15.260000000000002 6.359999999999999H15.140000000000002Q14.840000000000002 6.359999999999999 14.840000000000002 6.06V5.9399999999999995Q14.840000000000002 5.64 15.140000000000002 5.64Z"></path></g></g></svg>